{
  "accessors": [
    {
      "bufferView": 3,
      "componentType": 5126,
      "count": 5248,
      "max": [
        2.486442804336548,
        22.981670379638672,
        4.297924995422363
      ],
      "min": [
        -2.964484930038452,
        -0.17701134085655212,
        -12.502280235290527
      ],
      "type": "VEC3"
    },
    {
      "bufferView": 3,
      "byteOffset": 62976,
      "componentType": 5126,
      "count": 5248,
      "max": [
        0.9999331831932068,
        0.99903404712677,
        0.9997137784957886
      ],
      "min": [
        -0.9998904466629028,
        -0.9797859191894531,
        -0.9996020793914795
      ],
      "type": "VEC3"
    },
    {
      "bufferView": 2,
      "componentType": 5126,
      "count": 5248,
      "max": [
        1.0,
        1.0
      ],
      "min": [
        0.0,
        0.0
      ],
      "type": "VEC2"
    },
    {
      "bufferView": 1,
      "componentType": 5125,
      "count": 13110,
      "type": "SCALAR"
    },
    {
      "bufferView": 5,
      "componentType": 5126,
      "count": 22,
      "max": [
        1.0,
        0.09502513706684113,
        0.3282889425754547,
        0.0,
        0.06592464447021484,
        1.0,
        0.4950706660747528,
        0.0,
        0.01333248894661665,
        0.1630549430847168,
        1.0,
        0.0,
        1.180555820465088,
        0.15828852355480194,
        2.24204421043396,
        1.0
      ],
      "min": [
        0.2642499506473541,
        -0.059232208877801895,
        -0.003652548184618354,
        0.0,
        -0.2032259851694107,
        0.14970114827156067,
        -0.16433203220367432,
        0.0,
        -0.3313906490802765,
        -0.4604094624519348,
        0.1492353230714798,
        0.0,
        -1.7057232856750488,
        -10.388725280761719,
        -1.5246065855026245,
        1.0
      ],
      "type": "MAT4"
    },
    {
      "bufferView": 0,
      "componentType": 5123,
      "count": 5248,
      "type": "VEC4"
    },
    {
      "bufferView": 4,
      "componentType": 5126,
      "count": 5248,
      "max": [
        1.0,
        0.4995672404766083,
        0.2915360927581787,
        0.18306030333042145
      ],
      "min": [
        0.31044313311576843,
        0.0,
        0.0,
        0.0
      ],
      "type": "VEC4"
    },
    {
      "bufferView": 6,
      "componentType": 5126,
      "count": 1,
      "max": [
        0.0416666679084301
      ],
      "min": [
        0.0416666679084301
      ],
      "type": "SCALAR"
    },
    {
      "bufferView": 8,
      "componentType": 5126,
      "count": 1,
      "max": [
        0.0014947861200198531,
        -0.03067740611732006,
        -0.15024273097515106,
        0.9881719350814819
      ],
      "min": [
        0.0014947861200198531,
        -0.03067740611732006,
        -0.15024273097515106,
        0.9881719350814819
      ],
      "type": "VEC4"
    },
    {
      "bufferView": 6,
      "byteOffset": 4,
      "componentType": 5126,
      "count": 1,
      "max": [
        0.0416666679084301
      ],
      "min": [
        0.0416666679084301
      ],
      "type": "SCALAR"
    },
    {
      "bufferView": 8,
      "byteOffset": 16,
      "componentType": 5126,
      "count": 1,
      "max": [
        0.02277572825551033,
        0.11678533256053925,
        0.11188646405935287,
        0.9865717887878418
      ],
      "min": [
        0.02277572825551033,
        0.11678533256053925,
        0.11188646405935287,
        0.9865717887878418
      ],
      "type": "VEC4"
    },
    {
      "bufferView": 6,
      "byteOffset": 8,
      "componentType": 5126,
      "count": 1,
      "max": [
        0.0416666679084301
      ],
      "min": [
        0.0416666679084301
      ],
      "type": "SCALAR"
    },
    {
      "bufferView": 7,
      "componentType": 5126,
      "count": 1,
      "max": [
        2.473807469982603e-08,
        0.9446788430213928,
        -4.9822752146155835e-08
      ],
      "min": [
        2.473807469982603e-08,
        0.9446788430213928,
        -4.9822752146155835e-08
      ],
      "type": "VEC3"
    },
    {
      "bufferView": 6,
      "byteOffset": 12,
      "componentType": 5126,
      "count": 1,
      "max": [
        0.0416666679084301
      ],
      "min": [
        0.0416666679084301
      ],
      "type": "SCALAR"
    },
    {
      "bufferView": 8,
      "byteOffset": 32,
      "componentType": 5126,
      "count": 1,
      "max": [
        -0.00023430146393366158,
        0.06320628523826599,
        0.10616876184940338,
        0.9923372268676758
      ],
      "min": [
        -0.00023430146393366158,
        0.06320628523826599,
        0.10616876184940338,
        0.9923372268676758
      ],
      "type": "VEC4"
    },
    {
      "bufferView": 6,
      "byteOffset": 16,
      "componentType": 5126,
      "count": 1,
      "max": [
        0.0416666679084301
      ],
      "min": [
        0.0416666679084301
      ],
      "type": "SCALAR"
    },
    {
      "bufferView": 8,
      "byteOffset": 48,
      "componentType": 5126,
      "count": 1,
      "max": [
        0.012984606437385082,
        -0.03450866416096687,
        -0.01310809701681137,
        0.9992340803146362
      ],
      "min": [
        0.012984606437385082,
        -0.03450866416096687,
        -0.01310809701681137,
        0.9992340803146362
      ],
      "type": "VEC4"
    },
    {
      "bufferView": 6,
      "byteOffset": 20,
      "componentType": 5126,
      "count": 1,
      "max": [
        0.0416666679084301
      ],
      "min": [
        0.0416666679084301
      ],
      "type": "SCALAR"
    },
    {
      "bufferView": 8,
      "byteOffset": 64,
      "componentType": 5126,
      "count": 1,
      "max": [
        0.00547430757433176,
        -0.00018516433192417026,
        0.052347034215927124,
        0.9986139535903931
      ],
      "min": [
        0.00547430757433176,
        -0.00018516433192417026,
        0.052347034215927124,
        0.9986139535903931
      ],
      "type": "VEC4"
    },
    {
      "bufferView": 6,
      "byteOffset": 24,
      "componentType": 5126,
      "count": 1,
      "max": [
        0.0416666679084301
      ],
      "min": [
        0.0416666679084301
      ],
      "type": "SCALAR"
    },
    {
      "bufferView": 7,
      "byteOffset": 12,
      "componentType": 5126,
      "count": 1,
      "max": [
        -3.620818489480371e-08,
        1.4459468126296997,
        3.198448439434287e-08
      ],
      "min": [
        -3.620818489480371e-08,
        1.4459468126296997,
        3.198448439434287e-08
      ],
      "type": "VEC3"
    },
    {
      "bufferView": 6,
      "byteOffset": 28,
      "componentType": 5126,
      "count": 1,
      "max": [
        0.0416666679084301
      ],
      "min": [
        0.0416666679084301
      ],
      "type": "SCALAR"
    },
    {
      "bufferView": 8,
      "byteOffset": 80,
      "componentType": 5126,
      "count": 1,
      "max": [
        0.01168470736593008,
        -0.0001824246282922104,
        0.12083939462900162,
        0.9926033020019531
      ],
      "min": [
        0.01168470736593008,
        -0.0001824246282922104,
        0.12083939462900162,
        0.9926033020019531
      ],
      "type": "VEC4"
    },
    {
      "bufferView": 6,
      "byteOffset": 32,
      "componentType": 5126,
      "count": 1,
      "max": [
        0.0416666679084301
      ],
      "min": [
        0.0416666679084301
      ],
      "type": "SCALAR"
    },
    {
      "bufferView": 8,
      "byteOffset": 96,
      "componentType": 5126,
      "count": 1,
      "max": [
        0.091342993080616,
        -0.05932074040174484,
        0.07720159739255905,
        0.9910486340522766
      ],
      "min": [
        0.091342993080616,
        -0.05932074040174484,
        0.07720159739255905,
        0.9910486340522766
      ],
      "type": "VEC4"
    },
    {
      "bufferView": 6,
      "byteOffset": 36,
      "componentType": 5126,
      "count": 1,
      "max": [
        0.0416666679084301
      ],
      "min": [
        0.0416666679084301
      ],
      "type": "SCALAR"
    },
    {
      "bufferView": 8,
      "byteOffset": 112,
      "componentType": 5126,
      "count": 1,
      "max": [
        0.00846028421074152,
        0.00023250114463735372,
        0.08349873870611191,
        0.9964720010757446
      ],
      "min": [
        0.00846028421074152,
        0.00023250114463735372,
        0.08349873870611191,
        0.9964720010757446
      ],
      "type": "VEC4"
    },
    {
      "bufferView": 6,
      "byteOffset": 40,
      "componentType": 5126,
      "count": 1,
      "max": [
        0.0416666679084301
      ],
      "min": [
        0.0416666679084301
      ],
      "type": "SCALAR"
    },
    {
      "bufferView": 8,
      "byteOffset": 128,
      "componentType": 5126,
      "count": 1,
      "max": [
        -0.00859381165355444,
        0.0005288216634653509,
        0.09882532060146332,
        0.9950675964355469
      ],
      "min": [
        -0.00859381165355444,
        0.0005288216634653509,
        0.09882532060146332,
        0.9950675964355469
      ],
      "type": "VEC4"
    },
    {
      "bufferView": 6,
      "byteOffset": 44,
      "componentType": 5126,
      "count": 1,
      "max": [
        0.0416666679084301
      ],
      "min": [
        0.0416666679084301
      ],
      "type": "SCALAR"
    },
    {
      "bufferView": 8,
      "byteOffset": 144,
      "componentType": 5126,
      "count": 1,
      "max": [
        0.11059685051441193,
        -0.06192392483353615,
        0.28461742401123047,
        0.9502245783805847
      ],
      "min": [
        0.11059685051441193,
        -0.06192392483353615,
        0.28461742401123047,
        0.9502245783805847
      ],
      "type": "VEC4"
    },
    {
      "bufferView": 6,
      "byteOffset": 48,
      "componentType": 5126,
      "count": 1,
      "max": [
        0.0416666679084301
      ],
      "min": [
        0.0416666679084301
      ],
      "type": "SCALAR"
    },
    {
      "bufferView": 8,
      "byteOffset": 160,
      "componentType": 5126,
      "count": 1,
      "max": [
        0.03743772953748703,
        -0.03405452519655228,
        0.6360597014427185,
        0.7699783444404602
      ],
      "min": [
        0.03743772953748703,
        -0.03405452519655228,
        0.6360597014427185,
        0.7699783444404602
      ],
      "type": "VEC4"
    },
    {
      "bufferView": 6,
      "byteOffset": 52,
      "componentType": 5126,
      "count": 1,
      "max": [
        0.0416666679084301
      ],
      "min": [
        0.0416666679084301
      ],
      "type": "SCALAR"
    },
    {
      "bufferView": 7,
      "byteOffset": 24,
      "componentType": 5126,
      "count": 1,
      "max": [
        -1.9451761090749642e-07,
        1.3109736442565918,
        -2.5299538464196303e-08
      ],
      "min": [
        -1.9451761090749642e-07,
        1.3109736442565918,
        -2.5299538464196303e-08
      ],
      "type": "VEC3"
    },
    {
      "bufferView": 6,
      "byteOffset": 56,
      "componentType": 5126,
      "count": 1,
      "max": [
        0.0416666679084301
      ],
      "min": [
        0.0416666679084301
      ],
      "type": "SCALAR"
    },
    {
      "bufferView": 8,
      "byteOffset": 176,
      "componentType": 5126,
      "count": 1,
      "max": [
        0.0030575082637369633,
        0.0035019838251173496,
        0.3905172348022461,
        0.9205839037895203
      ],
      "min": [
        0.0030575082637369633,
        0.0035019838251173496,
        0.3905172348022461,
        0.9205839037895203
      ],
      "type": "VEC4"
    },
    {
      "bufferView": 6,
      "byteOffset": 60,
      "componentType": 5126,
      "count": 1,
      "max": [
        0.0416666679084301
      ],
      "min": [
        0.0416666679084301
      ],
      "type": "SCALAR"
    },
    {
      "bufferView": 8,
      "byteOffset": 192,
      "componentType": 5126,
      "count": 1,
      "max": [
        -0.3835139274597168,
        0.15947167575359344,
        0.30564793944358826,
        0.8567760586738586
      ],
      "min": [
        -0.3835139274597168,
        0.15947167575359344,
        0.30564793944358826,
        0.8567760586738586
      ],
      "type": "VEC4"
    },
    {
      "bufferView": 6,
      "byteOffset": 64,
      "componentType": 5126,
      "count": 1,
      "max": [
        0.0416666679084301
      ],
      "min": [
        0.0416666679084301
      ],
      "type": "SCALAR"
    },
    {
      "bufferView": 7,
      "byteOffset": 36,
      "componentType": 5126,
      "count": 1,
      "max": [
        1.060621738433838,
        0.9517744779586792,
        0.9991937875747681
      ],
      "min": [
        1.060621738433838,
        0.9517744779586792,
        0.9991937875747681
      ],
      "type": "VEC3"
    },
    {
      "bufferView": 6,
      "byteOffset": 68,
      "componentType": 5126,
      "count": 1,
      "max": [
        0.0416666679084301
      ],
      "min": [
        0.0416666679084301
      ],
      "type": "SCALAR"
    },
    {
      "bufferView": 8,
      "byteOffset": 208,
      "componentType": 5126,
      "count": 1,
      "max": [
        0.22032669186592102,
        0.22833527624607086,
        0.08505899459123611,
        0.944502055644989
      ],
      "min": [
        0.22032669186592102,
        0.22833527624607086,
        0.08505899459123611,
        0.944502055644989
      ],
      "type": "VEC4"
    },
    {
      "bufferView": 6,
      "byteOffset": 72,
      "componentType": 5126,
      "count": 1,
      "max": [
        0.0416666679084301
      ],
      "min": [
        0.0416666679084301
      ],
      "type": "SCALAR"
    },
    {
      "bufferView": 8,
      "byteOffset": 224,
      "componentType": 5126,
      "count": 1,
      "max": [
        0.04796770215034485,
        0.26024729013442993,
        0.2592727541923523,
        0.9288423657417297
      ],
      "min": [
        0.04796770215034485,
        0.26024729013442993,
        0.2592727541923523,
        0.9288423657417297
      ],
      "type": "VEC4"
    },
    {
      "bufferView": 6,
      "byteOffset": 76,
      "componentType": 5126,
      "count": 1,
      "max": [
        0.0416666679084301
      ],
      "min": [
        0.0416666679084301
      ],
      "type": "SCALAR"
    },
    {
      "bufferView": 8,
      "byteOffset": 240,
      "componentType": 5126,
      "count": 1,
      "max": [
        0.05861632153391838,
        0.1681821346282959,
        0.19549134373664856,
        0.9643972516059875
      ],
      "min": [
        0.05861632153391838,
        0.1681821346282959,
        0.19549134373664856,
        0.9643972516059875
      ],
      "type": "VEC4"
    },
    {
      "bufferView": 6,
      "byteOffset": 80,
      "componentType": 5126,
      "count": 1,
      "max": [
        0.0416666679084301
      ],
      "min": [
        0.0416666679084301
      ],
      "type": "SCALAR"
    },
    {
      "bufferView": 8,
      "byteOffset": 256,
      "componentType": 5126,
      "count": 1,
      "max": [
        0.0014947861200198531,
        -0.03067740611732006,
        -0.15024273097515106,
        0.9881719350814819
      ],
      "min": [
        0.0014947861200198531,
        -0.03067740611732006,
        -0.15024273097515106,
        0.9881719350814819
      ],
      "type": "VEC4"
    },
    {
      "bufferView": 6,
      "byteOffset": 84,
      "componentType": 5126,
      "count": 1,
      "max": [
        0.0416666679084301
      ],
      "min": [
        0.0416666679084301
      ],
      "type": "SCALAR"
    },
    {
      "bufferView": 8,
      "byteOffset": 272,
      "componentType": 5126,
      "count": 1,
      "max": [
        0.02277572825551033,
        0.11678533256053925,
        0.11188646405935287,
        0.9865717887878418
      ],
      "min": [
        0.02277572825551033,
        0.11678533256053925,
        0.11188646405935287,
        0.9865717887878418
      ],
      "type": "VEC4"
    },
    {
      "bufferView": 6,
      "byteOffset": 88,
      "componentType": 5126,
      "count": 1,
      "max": [
        0.0416666679084301
      ],
      "min": [
        0.0416666679084301
      ],
      "type": "SCALAR"
    },
    {
      "bufferView": 7,
      "byteOffset": 48,
      "componentType": 5126,
      "count": 1,
      "max": [
        2.473807469982603e-08,
        0.9446788430213928,
        -4.9822752146155835e-08
      ],
      "min": [
        2.473807469982603e-08,
        0.9446788430213928,
        -4.9822752146155835e-08
      ],
      "type": "VEC3"
    },
    {
      "bufferView": 6,
      "byteOffset": 92,
      "componentType": 5126,
      "count": 1,
      "max": [
        0.0416666679084301
      ],
      "min": [
        0.0416666679084301
      ],
      "type": "SCALAR"
    },
    {
      "bufferView": 8,
      "byteOffset": 288,
      "componentType": 5126,
      "count": 1,
      "max": [
        -0.00023430146393366158,
        0.06320628523826599,
        0.10616876184940338,
        0.9923372268676758
      ],
      "min": [
        -0.00023430146393366158,
        0.06320628523826599,
        0.10616876184940338,
        0.9923372268676758
      ],
      "type": "VEC4"
    },
    {
      "bufferView": 6,
      "byteOffset": 96,
      "componentType": 5126,
      "count": 1,
      "max": [
        0.0416666679084301
      ],
      "min": [
        0.0416666679084301
      ],
      "type": "SCALAR"
    },
    {
      "bufferView": 8,
      "byteOffset": 304,
      "componentType": 5126,
      "count": 1,
      "max": [
        0.012984606437385082,
        -0.03450866416096687,
        -0.01310809701681137,
        0.9992340803146362
      ],
      "min": [
        0.012984606437385082,
        -0.03450866416096687,
        -0.01310809701681137,
        0.9992340803146362
      ],
      "type": "VEC4"
    },
    {
      "bufferView": 6,
      "byteOffset": 100,
      "componentType": 5126,
      "count": 1,
      "max": [
        0.0416666679084301
      ],
      "min": [
        0.0416666679084301
      ],
      "type": "SCALAR"
    },
    {
      "bufferView": 8,
      "byteOffset": 320,
      "componentType": 5126,
      "count": 1,
      "max": [
        0.00547430757433176,
        -0.00018516433192417026,
        0.052347034215927124,
        0.9986139535903931
      ],
      "min": [
        0.00547430757433176,
        -0.00018516433192417026,
        0.052347034215927124,
        0.9986139535903931
      ],
      "type": "VEC4"
    },
    {
      "bufferView": 6,
      "byteOffset": 104,
      "componentType": 5126,
      "count": 1,
      "max": [
        0.0416666679084301
      ],
      "min": [
        0.0416666679084301
      ],
      "type": "SCALAR"
    },
    {
      "bufferView": 7,
      "byteOffset": 60,
      "componentType": 5126,
      "count": 1,
      "max": [
        -3.620818489480371e-08,
        1.4459468126296997,
        3.198448439434287e-08
      ],
      "min": [
        -3.620818489480371e-08,
        1.4459468126296997,
        3.198448439434287e-08
      ],
      "type": "VEC3"
    },
    {
      "bufferView": 6,
      "byteOffset": 108,
      "componentType": 5126,
      "count": 1,
      "max": [
        0.0416666679084301
      ],
      "min": [
        0.0416666679084301
      ],
      "type": "SCALAR"
    },
    {
      "bufferView": 8,
      "byteOffset": 336,
      "componentType": 5126,
      "count": 1,
      "max": [
        0.01168470736593008,
        -0.0001824246282922104,
        0.12083939462900162,
        0.9926033020019531
      ],
      "min": [
        0.01168470736593008,
        -0.0001824246282922104,
        0.12083939462900162,
        0.9926033020019531
      ],
      "type": "VEC4"
    },
    {
      "bufferView": 6,
      "byteOffset": 112,
      "componentType": 5126,
      "count": 1,
      "max": [
        0.0416666679084301
      ],
      "min": [
        0.0416666679084301
      ],
      "type": "SCALAR"
    },
    {
      "bufferView": 8,
      "byteOffset": 352,
      "componentType": 5126,
      "count": 1,
      "max": [
        0.091342993080616,
        -0.05932074040174484,
        0.07720159739255905,
        0.9910486340522766
      ],
      "min": [
        0.091342993080616,
        -0.05932074040174484,
        0.07720159739255905,
        0.9910486340522766
      ],
      "type": "VEC4"
    },
    {
      "bufferView": 6,
      "byteOffset": 116,
      "componentType": 5126,
      "count": 1,
      "max": [
        0.0416666679084301
      ],
      "min": [
        0.0416666679084301
      ],
      "type": "SCALAR"
    },
    {
      "bufferView": 8,
      "byteOffset": 368,
      "componentType": 5126,
      "count": 1,
      "max": [
        0.00846028421074152,
        0.00023250114463735372,
        0.08349873870611191,
        0.9964720010757446
      ],
      "min": [
        0.00846028421074152,
        0.00023250114463735372,
        0.08349873870611191,
        0.9964720010757446
      ],
      "type": "VEC4"
    },
    {
      "bufferView": 6,
      "byteOffset": 120,
      "componentType": 5126,
      "count": 1,
      "max": [
        0.0416666679084301
      ],
      "min": [
        0.0416666679084301
      ],
      "type": "SCALAR"
    },
    {
      "bufferView": 8,
      "byteOffset": 384,
      "componentType": 5126,
      "count": 1,
      "max": [
        -0.00859381165355444,
        0.0005288216634653509,
        0.09882532060146332,
        0.9950675964355469
      ],
      "min": [
        -0.00859381165355444,
        0.0005288216634653509,
        0.09882532060146332,
        0.9950675964355469
      ],
      "type": "VEC4"
    },
    {
      "bufferView": 6,
      "byteOffset": 124,
      "componentType": 5126,
      "count": 1,
      "max": [
        0.0416666679084301
      ],
      "min": [
        0.0416666679084301
      ],
      "type": "SCALAR"
    },
    {
      "bufferView": 8,
      "byteOffset": 400,
      "componentType": 5126,
      "count": 1,
      "max": [
        0.11059685051441193,
        -0.06192392483353615,
        0.28461742401123047,
        0.9502245783805847
      ],
      "min": [
        0.11059685051441193,
        -0.06192392483353615,
        0.28461742401123047,
        0.9502245783805847
      ],
      "type": "VEC4"
    },
    {
      "bufferView": 6,
      "byteOffset": 128,
      "componentType": 5126,
      "count": 1,
      "max": [
        0.0416666679084301
      ],
      "min": [
        0.0416666679084301
      ],
      "type": "SCALAR"
    },
    {
      "bufferView": 8,
      "byteOffset": 416,
      "componentType": 5126,
      "count": 1,
      "max": [
        0.03743772953748703,
        -0.03405452519655228,
        0.6360597014427185,
        0.7699783444404602
      ],
      "min": [
        0.03743772953748703,
        -0.03405452519655228,
        0.6360597014427185,
        0.7699783444404602
      ],
      "type": "VEC4"
    },
    {
      "bufferView": 6,
      "byteOffset": 132,
      "componentType": 5126,
      "count": 1,
      "max": [
        0.0416666679084301
      ],
      "min": [
        0.0416666679084301
      ],
      "type": "SCALAR"
    },
    {
      "bufferView": 7,
      "byteOffset": 72,
      "componentType": 5126,
      "count": 1,
      "max": [
        -1.9451761090749642e-07,
        1.3109736442565918,
        -2.5299538464196303e-08
      ],
      "min": [
        -1.9451761090749642e-07,
        1.3109736442565918,
        -2.5299538464196303e-08
      ],
      "type": "VEC3"
    },
    {
      "bufferView": 6,
      "byteOffset": 136,
      "componentType": 5126,
      "count": 1,
      "max": [
        0.0416666679084301
      ],
      "min": [
        0.0416666679084301
      ],
      "type": "SCALAR"
    },
    {
      "bufferView": 8,
      "byteOffset": 432,
      "componentType": 5126,
      "count": 1,
      "max": [
        0.0030575082637369633,
        0.0035019838251173496,
        0.3905172348022461,
        0.9205839037895203
      ],
      "min": [
        0.0030575082637369633,
        0.0035019838251173496,
        0.3905172348022461,
        0.9205839037895203
      ],
      "type": "VEC4"
    },
    {
      "bufferView": 6,
      "byteOffset": 140,
      "componentType": 5126,
      "count": 1,
      "max": [
        0.0416666679084301
      ],
      "min": [
        0.0416666679084301
      ],
      "type": "SCALAR"
    },
    {
      "bufferView": 8,
      "byteOffset": 448,
      "componentType": 5126,
      "count": 1,
      "max": [
        -0.3835139274597168,
        0.15947167575359344,
        0.30564793944358826,
        0.8567760586738586
      ],
      "min": [
        -0.3835139274597168,
        0.15947167575359344,
        0.30564793944358826,
        0.8567760586738586
      ],
      "type": "VEC4"
    },
    {
      "bufferView": 6,
      "byteOffset": 144,
      "componentType": 5126,
      "count": 1,
      "max": [
        0.0416666679084301
      ],
      "min": [
        0.0416666679084301
      ],
      "type": "SCALAR"
    },
    {
      "bufferView": 7,
      "byteOffset": 84,
      "componentType": 5126,
      "count": 1,
      "max": [
        1.060621738433838,
        0.9517744779586792,
        0.9991937875747681
      ],
      "min": [
        1.060621738433838,
        0.9517744779586792,
        0.9991937875747681
      ],
      "type": "VEC3"
    },
    {
      "bufferView": 6,
      "byteOffset": 148,
      "componentType": 5126,
      "count": 1,
      "max": [
        0.0416666679084301
      ],
      "min": [
        0.0416666679084301
      ],
      "type": "SCALAR"
    },
    {
      "bufferView": 8,
      "byteOffset": 464,
      "componentType": 5126,
      "count": 1,
      "max": [
        0.22032669186592102,
        0.22833527624607086,
        0.08505899459123611,
        0.944502055644989
      ],
      "min": [
        0.22032669186592102,
        0.22833527624607086,
        0.08505899459123611,
        0.944502055644989
      ],
      "type": "VEC4"
    },
    {
      "bufferView": 6,
      "byteOffset": 152,
      "componentType": 5126,
      "count": 1,
      "max": [
        0.0416666679084301
      ],
      "min": [
        0.0416666679084301
      ],
      "type": "SCALAR"
    },
    {
      "bufferView": 8,
      "byteOffset": 480,
      "componentType": 5126,
      "count": 1,
      "max": [
        0.04796770215034485,
        0.26024729013442993,
        0.2592727541923523,
        0.9288423657417297
      ],
      "min": [
        0.04796770215034485,
        0.26024729013442993,
        0.2592727541923523,
        0.9288423657417297
      ],
      "type": "VEC4"
    },
    {
      "bufferView": 6,
      "byteOffset": 156,
      "componentType": 5126,
      "count": 1,
      "max": [
        0.0416666679084301
      ],
      "min": [
        0.0416666679084301
      ],
      "type": "SCALAR"
    },
    {
      "bufferView": 8,
      "byteOffset": 496,
      "componentType": 5126,
      "count": 1,
      "max": [
        0.05861632153391838,
        0.1681821346282959,
        0.19549134373664856,
        0.9643972516059875
      ],
      "min": [
        0.05861632153391838,
        0.1681821346282959,
        0.19549134373664856,
        0.9643972516059875
      ],
      "type": "VEC4"
    },
    {
      "bufferView": 6,
      "byteOffset": 160,
      "componentType": 5126,
      "count": 91,
      "max": [
        5.0
      ],
      "min": [
        0.0416666679084301
      ],
      "type": "SCALAR"
    },
    {
      "bufferView": 8,
      "byteOffset": 512,
      "componentType": 5126,
      "count": 91,
      "max": [
        0.0014947861200198531,
        0.03281833231449127,
        0.7544763684272766,
        0.999180793762207
      ],
      "min": [
        -0.2501501739025116,
        -0.031634699553251266,
        -0.15024273097515106,
        0.6468477845191956
      ],
      "type": "VEC4"
    },
    {
      "bufferView": 6,
      "byteOffset": 524,
      "componentType": 5126,
      "count": 2,
      "max": [
        5.0
      ],
      "min": [
        0.0416666679084301
      ],
      "type": "SCALAR"
    },
    {
      "bufferView": 7,
      "byteOffset": 96,
      "componentType": 5126,
      "count": 2,
      "max": [
        0.9999998807907104,
        0.9999995827674866,
        0.9999995231628418
      ],
      "min": [
        0.9999997019767761,
        0.9999995231628418,
        0.9999995231628418
      ],
      "type": "VEC3"
    },
    {
      "bufferView": 6,
      "byteOffset": 532,
      "componentType": 5126,
      "count": 2,
      "max": [
        5.0
      ],
      "min": [
        0.0416666679084301
      ],
      "type": "SCALAR"
    },
    {
      "bufferView": 7,
      "byteOffset": 120,
      "componentType": 5126,
      "count": 2,
      "max": [
        1.0583753429216358e-08,
        1.8388806581497192,
        1.4373877377238387e-07
      ],
      "min": [
        -8.081492808287294e-08,
        1.8388795852661133,
        -6.091200077662506e-08
      ],
      "type": "VEC3"
    },
    {
      "bufferView": 6,
      "byteOffset": 540,
      "componentType": 5126,
      "count": 120,
      "max": [
        5.0
      ],
      "min": [
        0.0416666679084301
      ],
      "type": "SCALAR"
    },
    {
      "bufferView": 8,
      "byteOffset": 1968,
      "componentType": 5126,
      "count": 120,
      "max": [
        0.0820121243596077,
        0.1190595030784607,
        0.7379873991012573,
        0.9929003715515137
      ],
      "min": [
        -0.010023646987974644,
        0.06042380630970001,
        -0.018131371587514877,
        0.6671165227890015
      ],
      "type": "VEC4"
    },
    {
      "bufferView": 6,
      "byteOffset": 1020,
      "componentType": 5126,
      "count": 2,
      "max": [
        5.0
      ],
      "min": [
        0.0416666679084301
      ],
      "type": "SCALAR"
    },
    {
      "bufferView": 7,
      "byteOffset": 144,
      "componentType": 5126,
      "count": 2,
      "max": [
        1.0000001192092896,
        1.0,
        1.0000001192092896
      ],
      "min": [
        0.9999999403953552,
        0.9999999403953552,
        0.9999999403953552
      ],
      "type": "VEC3"
    },
    {
      "bufferView": 6,
      "byteOffset": 1028,
      "componentType": 5126,
      "count": 2,
      "max": [
        5.0
      ],
      "min": [
        0.0416666679084301
      ],
      "type": "SCALAR"
    },
    {
      "bufferView": 7,
      "byteOffset": 168,
      "componentType": 5126,
      "count": 2,
      "max": [
        3.3676215593914094e-08,
        0.9446794986724854,
        1.6760542109750531e-07
      ],
      "min": [
        -1.1519198039877665e-08,
        0.9446787238121033,
        -2.506906469079695e-07
      ],
      "type": "VEC3"
    },
    {
      "bufferView": 6,
      "byteOffset": 1036,
      "componentType": 5126,
      "count": 120,
      "max": [
        5.0
      ],
      "min": [
        0.0416666679084301
      ],
      "type": "SCALAR"
    },
    {
      "bufferView": 8,
      "byteOffset": 3888,
      "componentType": 5126,
      "count": 120,
      "max": [
        0.04067736491560936,
        0.06320653855800629,
        0.7224469780921936,
        0.9979912638664246
      ],
      "min": [
        -0.010913011617958546,
        0.04837808012962341,
        -0.06306597590446472,
        0.6885312795639038
      ],
      "type": "VEC4"
    },
    {
      "bufferView": 6,
      "byteOffset": 1516,
      "componentType": 5126,
      "count": 2,
      "max": [
        5.0
      ],
      "min": [
        0.0416666679084301
      ],
      "type": "SCALAR"
    },
    {
      "bufferView": 7,
      "byteOffset": 192,
      "componentType": 5126,
      "count": 2,
      "max": [
        1.0000001192092896,
        1.0,
        1.0
      ],
      "min": [
        0.9999999403953552,
        0.9999998807907104,
        0.9999999403953552
      ],
      "type": "VEC3"
    },
    {
      "bufferView": 6,
      "byteOffset": 1524,
      "componentType": 5126,
      "count": 91,
      "max": [
        5.0
      ],
      "min": [
        0.0416666679084301
      ],
      "type": "SCALAR"
    },
    {
      "bufferView": 8,
      "byteOffset": 5808,
      "componentType": 5126,
      "count": 91,
      "max": [
        0.01462649181485176,
        0.0019241811241954565,
        0.7606059312820435,
        0.9993332028388977
      ],
      "min": [
        -0.10720939189195633,
        -0.03450866416096687,
        -0.061046380549669266,
        0.6409141421318054
      ],
      "type": "VEC4"
    },
    {
      "bufferView": 6,
      "byteOffset": 1888,
      "componentType": 5126,
      "count": 2,
      "max": [
        5.0
      ],
      "min": [
        0.0416666679084301
      ],
      "type": "SCALAR"
    },
    {
      "bufferView": 7,
      "byteOffset": 216,
      "componentType": 5126,
      "count": 2,
      "max": [
        1.0000001192092896,
        0.9999998807907104,
        0.9999996423721313
      ],
      "min": [
        1.0000001192092896,
        0.9999995231628418,
        0.9999995827674866
      ],
      "type": "VEC3"
    },
    {
      "bufferView": 6,
      "byteOffset": 1896,
      "componentType": 5126,
      "count": 2,
      "max": [
        5.0
      ],
      "min": [
        0.0416666679084301
      ],
      "type": "SCALAR"
    },
    {
      "bufferView": 7,
      "byteOffset": 240,
      "componentType": 5126,
      "count": 2,
      "max": [
        8.93847929006597e-09,
        2.544203519821167,
        7.97165000676614e-08
      ],
      "min": [
        -1.954909656376458e-08,
        2.5442028045654297,
        1.4718636975885602e-08
      ],
      "type": "VEC3"
    },
    {
      "bufferView": 6,
      "byteOffset": 1904,
      "componentType": 5126,
      "count": 120,
      "max": [
        5.0
      ],
      "min": [
        0.0416666679084301
      ],
      "type": "SCALAR"
    },
    {
      "bufferView": 8,
      "byteOffset": 7264,
      "componentType": 5126,
      "count": 120,
      "max": [
        0.00547744007781148,
        6.265283445827663e-05,
        0.7938359975814819,
        0.9999596476554871
      ],
      "min": [
        -0.011708250269293785,
        -0.019584234803915024,
        0.00712209427729249,
        0.6078185439109802
      ],
      "type": "VEC4"
    },
    {
      "bufferView": 6,
      "byteOffset": 2384,
      "componentType": 5126,
      "count": 3,
      "max": [
        5.0
      ],
      "min": [
        0.0416666679084301
      ],
      "type": "SCALAR"
    },
    {
      "bufferView": 7,
      "byteOffset": 264,
      "componentType": 5126,
      "count": 3,
      "max": [
        0.9999999403953552,
        1.0,
        1.000000238418579
      ],
      "min": [
        0.9999998807907104,
        1.0,
        1.0000001192092896
      ],
      "type": "VEC3"
    },
    {
      "bufferView": 6,
      "byteOffset": 2396,
      "componentType": 5126,
      "count": 2,
      "max": [
        5.0
      ],
      "min": [
        0.0416666679084301
      ],
      "type": "SCALAR"
    },
    {
      "bufferView": 7,
      "byteOffset": 300,
      "componentType": 5126,
      "count": 2,
      "max": [
        -1.9342724755233576e-08,
        1.4459491968154907,
        -2.8151769804196647e-09
      ],
      "min": [
        -5.25879571000587e-08,
        1.4459463357925415,
        -1.0849444009863873e-07
      ],
      "type": "VEC3"
    },
    {
      "bufferView": 6,
      "byteOffset": 2404,
      "componentType": 5126,
      "count": 120,
      "max": [
        5.0
      ],
      "min": [
        0.0416666679084301
      ],
      "type": "SCALAR"
    },
    {
      "bufferView": 8,
      "byteOffset": 9184,
      "componentType": 5126,
      "count": 120,
      "max": [
        0.011686119250953197,
        0.0010397722944617271,
        0.7185869216918945,
        0.9997966289520264
      ],
      "min": [
        0.008965826593339443,
        -0.007495383732020855,
        0.016438575461506844,
        0.6953389644622803
      ],
      "type": "VEC4"
    },
    {
      "bufferView": 6,
      "byteOffset": 2884,
      "componentType": 5126,
      "count": 2,
      "max": [
        5.0
      ],
      "min": [
        0.0416666679084301
      ],
      "type": "SCALAR"
    },
    {
      "bufferView": 7,
      "byteOffset": 324,
      "componentType": 5126,
      "count": 2,
      "max": [
        0.9999999403953552,
        1.0000004768371582,
        1.0
      ],
      "min": [
        0.9999997019767761,
        1.0,
        1.0
      ],
      "type": "VEC3"
    },
    {
      "bufferView": 6,
      "byteOffset": 2892,
      "componentType": 5126,
      "count": 91,
      "max": [
        5.0
      ],
      "min": [
        0.0416666679084301
      ],
      "type": "SCALAR"
    },
    {
      "bufferView": 8,
      "byteOffset": 11104,
      "componentType": 5126,
      "count": 91,
      "max": [
        0.0998036339879036,
        -0.04509620741009712,
        0.7754589319229126,
        0.9940334558486938
      ],
      "min": [
        0.01842684857547283,
        -0.10796436667442322,
        -0.08172988146543503,
        0.6218259930610657
      ],
      "type": "VEC4"
    },
    {
      "bufferView": 6,
      "byteOffset": 3256,
      "componentType": 5126,
      "count": 2,
      "max": [
        5.0
      ],
      "min": [
        0.0416666679084301
      ],
      "type": "SCALAR"
    },
    {
      "bufferView": 7,
      "byteOffset": 348,
      "componentType": 5126,
      "count": 2,
      "max": [
        0.9999997615814209,
        1.0000003576278687,
        1.000000238418579
      ],
      "min": [
        0.9999997615814209,
        1.0,
        1.0000001192092896
      ],
      "type": "VEC3"
    },
    {
      "bufferView": 6,
      "byteOffset": 3264,
      "componentType": 5126,
      "count": 2,
      "max": [
        5.0
      ],
      "min": [
        0.0416666679084301
      ],
      "type": "SCALAR"
    },
    {
      "bufferView": 7,
      "byteOffset": 372,
      "componentType": 5126,
      "count": 2,
      "max": [
        4.4278209543335834e-08,
        2.7908778190612793,
        1.9017093677575758e-07
      ],
      "min": [
        -3.147718885543327e-08,
        2.790877342224121,
        -3.0757468039155356e-07
      ],
      "type": "VEC3"
    },
    {
      "bufferView": 6,
      "byteOffset": 3272,
      "componentType": 5126,
      "count": 120,
      "max": [
        5.0
      ],
      "min": [
        0.0416666679084301
      ],
      "type": "SCALAR"
    },
    {
      "bufferView": 8,
      "byteOffset": 12560,
      "componentType": 5126,
      "count": 120,
      "max": [
        0.0084633594378829,
        0.001065197866410017,
        0.7840999364852905,
        0.9999614953994751
      ],
      "min": [
        0.005955924745649099,
        -0.006013270001858473,
        -0.015117311850190163,
        0.6205769181251526
      ],
      "type": "VEC4"
    },
    {
      "bufferView": 6,
      "byteOffset": 3752,
      "componentType": 5126,
      "count": 2,
      "max": [
        5.0
      ],
      "min": [
        0.0416666679084301
      ],
      "type": "SCALAR"
    },
    {
      "bufferView": 7,
      "byteOffset": 396,
      "componentType": 5126,
      "count": 2,
      "max": [
        0.9999998807907104,
        0.9999999403953552,
        1.000000238418579
      ],
      "min": [
        0.9999997019767761,
        0.9999999403953552,
        1.0
      ],
      "type": "VEC3"
    },
    {
      "bufferView": 6,
      "byteOffset": 3760,
      "componentType": 5126,
      "count": 2,
      "max": [
        5.0
      ],
      "min": [
        0.0416666679084301
      ],
      "type": "SCALAR"
    },
    {
      "bufferView": 7,
      "byteOffset": 420,
      "componentType": 5126,
      "count": 2,
      "max": [
        3.768572298668005e-08,
        1.7368601560592651,
        3.09143700860659e-07
      ],
      "min": [
        -3.185327202004373e-08,
        1.7368594408035278,
        -1.9430288489274972e-07
      ],
      "type": "VEC3"
    },
    {
      "bufferView": 6,
      "byteOffset": 3768,
      "componentType": 5126,
      "count": 120,
      "max": [
        5.0
      ],
      "min": [
        0.0416666679084301
      ],
      "type": "SCALAR"
    },
    {
      "bufferView": 8,
      "byteOffset": 14480,
      "componentType": 5126,
      "count": 120,
      "max": [
        -0.0063327900134027,
        0.005833217408508062,
        0.7045937776565552,
        0.9999628663063049
      ],
      "min": [
        -0.008610041812062263,
        -0.0011021243408322334,
        -0.09064966440200806,
        0.7095586657524109
      ],
      "type": "VEC4"
    },
    {
      "bufferView": 6,
      "byteOffset": 4248,
      "componentType": 5126,
      "count": 2,
      "max": [
        5.0
      ],
      "min": [
        0.0416666679084301
      ],
      "type": "SCALAR"
    },
    {
      "bufferView": 7,
      "byteOffset": 444,
      "componentType": 5126,
      "count": 2,
      "max": [
        0.9999999403953552,
        1.0,
        1.0
      ],
      "min": [
        0.9999997615814209,
        0.9999999403953552,
        0.9999998211860657
      ],
      "type": "VEC3"
    },
    {
      "bufferView": 6,
      "byteOffset": 4256,
      "componentType": 5126,
      "count": 120,
      "max": [
        5.0
      ],
      "min": [
        0.0416666679084301
      ],
      "type": "SCALAR"
    },
    {
      "bufferView": 8,
      "byteOffset": 16400,
      "componentType": 5126,
      "count": 120,
      "max": [
        0.24058222770690918,
        -0.010205053724348545,
        0.7263641357421875,
        0.9978976845741272
      ],
      "min": [
        0.06376215815544128,
        -0.14589771628379822,
        -0.07984427362680435,
        0.653679609298706
      ],
      "type": "VEC4"
    },
    {
      "bufferView": 6,
      "byteOffset": 4736,
      "componentType": 5126,
      "count": 2,
      "max": [
        5.0
      ],
      "min": [
        0.0416666679084301
      ],
      "type": "SCALAR"
    },
    {
      "bufferView": 7,
      "byteOffset": 468,
      "componentType": 5126,
      "count": 2,
      "max": [
        0.9999999403953552,
        1.0,
        1.000000238418579
      ],
      "min": [
        0.9999998211860657,
        1.0,
        1.0
      ],
      "type": "VEC3"
    },
    {
      "bufferView": 6,
      "byteOffset": 4744,
      "componentType": 5126,
      "count": 2,
      "max": [
        5.0
      ],
      "min": [
        0.0416666679084301
      ],
      "type": "SCALAR"
    },
    {
      "bufferView": 7,
      "byteOffset": 492,
      "componentType": 5126,
      "count": 2,
      "max": [
        2.4169704460064168e-08,
        2.7596559524536133,
        -1.504737490165553e-08
      ],
      "min": [
        6.060945967334419e-09,
        2.759655237197876,
        -2.6759033744383487e-07
      ],
      "type": "VEC3"
    },
    {
      "bufferView": 6,
      "byteOffset": 4752,
      "componentType": 5126,
      "count": 120,
      "max": [
        5.0
      ],
      "min": [
        0.0416666679084301
      ],
      "type": "SCALAR"
    },
    {
      "bufferView": 8,
      "byteOffset": 18320,
      "componentType": 5126,
      "count": 120,
      "max": [
        0.06808312237262726,
        0.009175319224596024,
        0.8089361786842346,
        0.9986816644668579
      ],
      "min": [
        0.023893484845757484,
        -0.03405452519655228,
        -0.008585244417190552,
        0.5871361494064331
      ],
      "type": "VEC4"
    },
    {
      "bufferView": 6,
      "byteOffset": 5232,
      "componentType": 5126,
      "count": 2,
      "max": [
        5.0
      ],
      "min": [
        0.0416666679084301
      ],
      "type": "SCALAR"
    },
    {
      "bufferView": 7,
      "byteOffset": 516,
      "componentType": 5126,
      "count": 2,
      "max": [
        0.9999998807907104,
        1.0000001192092896,
        0.9999999403953552
      ],
      "min": [
        0.9999997615814209,
        1.0,
        0.9999997019767761
      ],
      "type": "VEC3"
    },
    {
      "bufferView": 6,
      "byteOffset": 5240,
      "componentType": 5126,
      "count": 2,
      "max": [
        5.0
      ],
      "min": [
        0.0416666679084301
      ],
      "type": "SCALAR"
    },
    {
      "bufferView": 7,
      "byteOffset": 540,
      "componentType": 5126,
      "count": 2,
      "max": [
        4.925466612348828e-08,
        1.3109742403030396,
        4.0254590771837684e-07
      ],
      "min": [
        -3.818079630235616e-09,
        1.3109736442565918,
        3.547444293872104e-07
      ],
      "type": "VEC3"
    },
    {
      "bufferView": 6,
      "byteOffset": 5248,
      "componentType": 5126,
      "count": 120,
      "max": [
        5.0
      ],
      "min": [
        0.0416666679084301
      ],
      "type": "SCALAR"
    },
    {
      "bufferView": 8,
      "byteOffset": 20240,
      "componentType": 5126,
      "count": 120,
      "max": [
        0.019025137647986412,
        0.006604794878512621,
        0.705918550491333,
        0.9999891519546509
      ],
      "min": [
        0.0010253529762849212,
        -0.0018886490724980831,
        -0.08879228681325912,
        0.7081828713417053
      ],
      "type": "VEC4"
    },
    {
      "bufferView": 6,
      "byteOffset": 5728,
      "componentType": 5126,
      "count": 2,
      "max": [
        5.0
      ],
      "min": [
        0.0416666679084301
      ],
      "type": "SCALAR"
    },
    {
      "bufferView": 7,
      "byteOffset": 564,
      "componentType": 5126,
      "count": 2,
      "max": [
        0.9999999403953552,
        1.0,
        1.0
      ],
      "min": [
        0.9999998211860657,
        1.0,
        0.9999999403953552
      ],
      "type": "VEC3"
    },
    {
      "bufferView": 6,
      "byteOffset": 5736,
      "componentType": 5126,
      "count": 91,
      "max": [
        5.0
      ],
      "min": [
        0.0416666679084301
      ],
      "type": "SCALAR"
    },
    {
      "bufferView": 8,
      "byteOffset": 22160,
      "componentType": 5126,
      "count": 91,
      "max": [
        -0.3760339319705963,
        0.18302999436855316,
        0.3226955533027649,
        0.9229424595832825
      ],
      "min": [
        -0.4080539047718048,
        0.017886104062199593,
        0.07951122522354126,
        0.845054030418396
      ],
      "type": "VEC4"
    },
    {
      "bufferView": 6,
      "byteOffset": 6100,
      "componentType": 5126,
      "count": 91,
      "max": [
        5.0
      ],
      "min": [
        0.0416666679084301
      ],
      "type": "SCALAR"
    },
    {
      "bufferView": 7,
      "byteOffset": 588,
      "componentType": 5126,
      "count": 91,
      "max": [
        1.0706552267074585,
        1.0119950771331787,
        1.003523826599121
      ],
      "min": [
        0.9913293719291687,
        0.9412024021148682,
        0.9988059401512146
      ],
      "type": "VEC3"
    },
    {
      "bufferView": 6,
      "byteOffset": 6464,
      "componentType": 5126,
      "count": 2,
      "max": [
        5.0
      ],
      "min": [
        0.0416666679084301
      ],
      "type": "SCALAR"
    },
    {
      "bufferView": 7,
      "byteOffset": 1680,
      "componentType": 5126,
      "count": 2,
      "max": [
        1.0973080577514338e-07,
        2.813136100769043,
        -7.406838165024965e-08
      ],
      "min": [
        -3.1063372318840266e-08,
        2.813135862350464,
        -8.948403973363384e-08
      ],
      "type": "VEC3"
    },
    {
      "bufferView": 6,
      "byteOffset": 6472,
      "componentType": 5126,
      "count": 91,
      "max": [
        5.0
      ],
      "min": [
        0.0416666679084301
      ],
      "type": "SCALAR"
    },
    {
      "bufferView": 8,
      "byteOffset": 23616,
      "componentType": 5126,
      "count": 91,
      "max": [
        0.4482559859752655,
        0.2633103132247925,
        0.1604393720626831,
        0.956544816493988
      ],
      "min": [
        0.21954597532749176,
        -0.10793419927358627,
        -0.1566351056098938,
        0.8749173879623413
      ],
      "type": "VEC4"
    },
    {
      "bufferView": 6,
      "byteOffset": 6836,
      "componentType": 5126,
      "count": 3,
      "max": [
        5.0
      ],
      "min": [
        0.0416666679084301
      ],
      "type": "SCALAR"
    },
    {
      "bufferView": 7,
      "byteOffset": 1704,
      "componentType": 5126,
      "count": 3,
      "max": [
        0.9999998807907104,
        1.000000238418579,
        1.000000238418579
      ],
      "min": [
        0.9999998211860657,
        1.0000001192092896,
        1.000000238418579
      ],
      "type": "VEC3"
    },
    {
      "bufferView": 6,
      "byteOffset": 6848,
      "componentType": 5126,
      "count": 2,
      "max": [
        5.0
      ],
      "min": [
        0.0416666679084301
      ],
      "type": "SCALAR"
    },
    {
      "bufferView": 7,
      "byteOffset": 1740,
      "componentType": 5126,
      "count": 2,
      "max": [
        -3.2277252870471784e-08,
        1.5502808094024658,
        -1.4954078153550654e-07
      ],
      "min": [
        -2.3042319696742197e-07,
        1.5502808094024658,
        -4.736385506021179e-07
      ],
      "type": "VEC3"
    },
    {
      "bufferView": 6,
      "byteOffset": 6856,
      "componentType": 5126,
      "count": 120,
      "max": [
        5.0
      ],
      "min": [
        0.0416666679084301
      ],
      "type": "SCALAR"
    },
    {
      "bufferView": 8,
      "byteOffset": 25072,
      "componentType": 5126,
      "count": 120,
      "max": [
        0.11236784607172012,
        0.276475727558136,
        0.6788976788520813,
        0.9756189584732056
      ],
      "min": [
        0.0012392919743433595,
        0.05253850296139717,
        0.07628025859594345,
        0.7238332033157349
      ],
      "type": "VEC4"
    },
    {
      "bufferView": 6,
      "byteOffset": 7336,
      "componentType": 5126,
      "count": 2,
      "max": [
        5.0
      ],
      "min": [
        0.0416666679084301
      ],
      "type": "SCALAR"
    },
    {
      "bufferView": 7,
      "byteOffset": 1764,
      "componentType": 5126,
      "count": 2,
      "max": [
        1.0,
        1.0000001192092896,
        1.000000238418579
      ],
      "min": [
        1.0,
        1.0,
        1.0
      ],
      "type": "VEC3"
    },
    {
      "bufferView": 6,
      "byteOffset": 7344,
      "componentType": 5126,
      "count": 2,
      "max": [
        5.0
      ],
      "min": [
        0.0416666679084301
      ],
      "type": "SCALAR"
    },
    {
      "bufferView": 7,
      "byteOffset": 1788,
      "componentType": 5126,
      "count": 2,
      "max": [
        1.9498523329275486e-07,
        1.5702139139175415,
        1.7037810096098838e-07
      ],
      "min": [
        1.2095018320223971e-08,
        1.5702134370803833,
        -1.9202414591745764e-07
      ],
      "type": "VEC3"
    },
    {
      "bufferView": 6,
      "byteOffset": 7352,
      "componentType": 5126,
      "count": 120,
      "max": [
        5.0
      ],
      "min": [
        0.0416666679084301
      ],
      "type": "SCALAR"
    },
    {
      "bufferView": 8,
      "byteOffset": 26992,
      "componentType": 5126,
      "count": 120,
      "max": [
        0.11620799452066422,
        0.17580366134643555,
        0.5636365413665771,
        0.9865983128547668
      ],
      "min": [
        0.023171940818428993,
        0.11431720107793808,
        -0.041742920875549316,
        0.8097784519195557
      ],
      "type": "VEC4"
    },
    {
      "bufferView": 6,
      "byteOffset": 7832,
      "componentType": 5126,
      "count": 2,
      "max": [
        5.0
      ],
      "min": [
        0.0416666679084301
      ],
      "type": "SCALAR"
    },
    {
      "bufferView": 7,
      "byteOffset": 1812,
      "componentType": 5126,
      "count": 2,
      "max": [
        1.0000003576278687,
        1.000000238418579,
        1.000000238418579
      ],
      "min": [
        0.9999998211860657,
        1.0,
        1.0000001192092896
      ],
      "type": "VEC3"
    }
  ],
  "animations": [
    {
      "channels": [
        {
          "sampler": 0,
          "target": {
            "node": 10,
            "path": "rotation"
          }
        },
        {
          "sampler": 1,
          "target": {
            "node": 11,
            "path": "rotation"
          }
        },
        {
          "sampler": 2,
          "target": {
            "node": 12,
            "path": "translation"
          }
        },
        {
          "sampler": 3,
          "target": {
            "node": 12,
            "path": "rotation"
          }
        },
        {
          "sampler": 4,
          "target": {
            "node": 14,
            "path": "rotation"
          }
        },
        {
          "sampler": 5,
          "target": {
            "node": 15,
            "path": "rotation"
          }
        },
        {
          "sampler": 6,
          "target": {
            "node": 16,
            "path": "translation"
          }
        },
        {
          "sampler": 7,
          "target": {
            "node": 16,
            "path": "rotation"
          }
        },
        {
          "sampler": 8,
          "target": {
            "node": 18,
            "path": "rotation"
          }
        },
        {
          "sampler": 9,
          "target": {
            "node": 19,
            "path": "rotation"
          }
        },
        {
          "sampler": 10,
          "target": {
            "node": 20,
            "path": "rotation"
          }
        },
        {
          "sampler": 11,
          "target": {
            "node": 22,
            "path": "rotation"
          }
        },
        {
          "sampler": 12,
          "target": {
            "node": 23,
            "path": "rotation"
          }
        },
        {
          "sampler": 13,
          "target": {
            "node": 24,
            "path": "translation"
          }
        },
        {
          "sampler": 14,
          "target": {
            "node": 24,
            "path": "rotation"
          }
        },
        {
          "sampler": 15,
          "target": {
            "node": 25,
            "path": "rotation"
          }
        },
        {
          "sampler": 16,
          "target": {
            "node": 25,
            "path": "scale"
          }
        },
        {
          "sampler": 17,
          "target": {
            "node": 26,
            "path": "rotation"
          }
        },
        {
          "sampler": 18,
          "target": {
            "node": 27,
            "path": "rotation"
          }
        },
        {
          "sampler": 19,
          "target": {
            "node": 28,
            "path": "rotation"
          }
        }
      ],
      "name": "Do_HandRiggedAction",
      "samplers": [
        {
          "input": 7,
          "interpolation": "LINEAR",
          "output": 8
        },
        {
          "input": 9,
          "interpolation": "LINEAR",
          "output": 10
        },
        {
          "input": 11,
          "interpolation": "LINEAR",
          "output": 12
        },
        {
          "input": 13,
          "interpolation": "LINEAR",
          "output": 14
        },
        {
          "input": 15,
          "interpolation": "LINEAR",
          "output": 16
        },
        {
          "input": 17,
          "interpolation": "LINEAR",
          "output": 18
        },
        {
          "input": 19,
          "interpolation": "LINEAR",
          "output": 20
        },
        {
          "input": 21,
          "interpolation": "LINEAR",
          "output": 22
        },
        {
          "input": 23,
          "interpolation": "LINEAR",
          "output": 24
        },
        {
          "input": 25,
          "interpolation": "LINEAR",
          "output": 26
        },
        {
          "input": 27,
          "interpolation": "LINEAR",
          "output": 28
        },
        {
          "input": 29,
          "interpolation": "LINEAR",
          "output": 30
        },
        {
          "input": 31,
          "interpolation": "LINEAR",
          "output": 32
        },
        {
          "input": 33,
          "interpolation": "LINEAR",
          "output": 34
        },
        {
          "input": 35,
          "interpolation": "LINEAR",
          "output": 36
        },
        {
          "input": 37,
          "interpolation": "LINEAR",
          "output": 38
        },
        {
          "input": 39,
          "interpolation": "LINEAR",
          "output": 40
        },
        {
          "input": 41,
          "interpolation": "LINEAR",
          "output": 42
        },
        {
          "input": 43,
          "interpolation": "LINEAR",
          "output": 44
        },
        {
          "input": 45,
          "interpolation": "LINEAR",
          "output": 46
        }
      ]
    },
    {
      "channels": [
        {
          "sampler": 0,
          "target": {
            "node": 10,
            "path": "rotation"
          }
        },
        {
          "sampler": 1,
          "target": {
            "node": 11,
            "path": "rotation"
          }
        },
        {
          "sampler": 2,
          "target": {
            "node": 12,
            "path": "translation"
          }
        },
        {
          "sampler": 3,
          "target": {
            "node": 12,
            "path": "rotation"
          }
        },
        {
          "sampler": 4,
          "target": {
            "node": 14,
            "path": "rotation"
          }
        },
        {
          "sampler": 5,
          "target": {
            "node": 15,
            "path": "rotation"
          }
        },
        {
          "sampler": 6,
          "target": {
            "node": 16,
            "path": "translation"
          }
        },
        {
          "sampler": 7,
          "target": {
            "node": 16,
            "path": "rotation"
          }
        },
        {
          "sampler": 8,
          "target": {
            "node": 18,
            "path": "rotation"
          }
        },
        {
          "sampler": 9,
          "target": {
            "node": 19,
            "path": "rotation"
          }
        },
        {
          "sampler": 10,
          "target": {
            "node": 20,
            "path": "rotation"
          }
        },
        {
          "sampler": 11,
          "target": {
            "node": 22,
            "path": "rotation"
          }
        },
        {
          "sampler": 12,
          "target": {
            "node": 23,
            "path": "rotation"
          }
        },
        {
          "sampler": 13,
          "target": {
            "node": 24,
            "path": "translation"
          }
        },
        {
          "sampler": 14,
          "target": {
            "node": 24,
            "path": "rotation"
          }
        },
        {
          "sampler": 15,
          "target": {
            "node": 25,
            "path": "rotation"
          }
        },
        {
          "sampler": 16,
          "target": {
            "node": 25,
            "path": "scale"
          }
        },
        {
          "sampler": 17,
          "target": {
            "node": 26,
            "path": "rotation"
          }
        },
        {
          "sampler": 18,
          "target": {
            "node": 27,
            "path": "rotation"
          }
        },
        {
          "sampler": 19,
          "target": {
            "node": 28,
            "path": "rotation"
          }
        }
      ],
      "name": "Pose_OK",
      "samplers": [
        {
          "input": 47,
          "interpolation": "LINEAR",
          "output": 48
        },
        {
          "input": 49,
          "interpolation": "LINEAR",
          "output": 50
        },
        {
          "input": 51,
          "interpolation": "LINEAR",
          "output": 52
        },
        {
          "input": 53,
          "interpolation": "LINEAR",
          "output": 54
        },
        {
          "input": 55,
          "interpolation": "LINEAR",
          "output": 56
        },
        {
          "input": 57,
          "interpolation": "LINEAR",
          "output": 58
        },
        {
          "input": 59,
          "interpolation": "LINEAR",
          "output": 60
        },
        {
          "input": 61,
          "interpolation": "LINEAR",
          "output": 62
        },
        {
          "input": 63,
          "interpolation": "LINEAR",
          "output": 64
        },
        {
          "input": 65,
          "interpolation": "LINEAR",
          "output": 66
        },
        {
          "input": 67,
          "interpolation": "LINEAR",
          "output": 68
        },
        {
          "input": 69,
          "interpolation": "LINEAR",
          "output": 70
        },
        {
          "input": 71,
          "interpolation": "LINEAR",
          "output": 72
        },
        {
          "input": 73,
          "interpolation": "LINEAR",
          "output": 74
        },
        {
          "input": 75,
          "interpolation": "LINEAR",
          "output": 76
        },
        {
          "input": 77,
          "interpolation": "LINEAR",
          "output": 78
        },
        {
          "input": 79,
          "interpolation": "LINEAR",
          "output": 80
        },
        {
          "input": 81,
          "interpolation": "LINEAR",
          "output": 82
        },
        {
          "input": 83,
          "interpolation": "LINEAR",
          "output": 84
        },
        {
          "input": 85,
          "interpolation": "LINEAR",
          "output": 86
        }
      ]
    },
    {
      "channels": [
        {
          "sampler": 0,
          "target": {
            "node": 10,
            "path": "rotation"
          }
        },
        {
          "sampler": 1,
          "target": {
            "node": 10,
            "path": "scale"
          }
        },
        {
          "sampler": 2,
          "target": {
            "node": 11,
            "path": "translation"
          }
        },
        {
          "sampler": 3,
          "target": {
            "node": 11,
            "path": "rotation"
          }
        },
        {
          "sampler": 4,
          "target": {
            "node": 11,
            "path": "scale"
          }
        },
        {
          "sampler": 5,
          "target": {
            "node": 12,
            "path": "translation"
          }
        },
        {
          "sampler": 6,
          "target": {
            "node": 12,
            "path": "rotation"
          }
        },
        {
          "sampler": 7,
          "target": {
            "node": 12,
            "path": "scale"
          }
        },
        {
          "sampler": 8,
          "target": {
            "node": 14,
            "path": "rotation"
          }
        },
        {
          "sampler": 9,
          "target": {
            "node": 14,
            "path": "scale"
          }
        },
        {
          "sampler": 10,
          "target": {
            "node": 15,
            "path": "translation"
          }
        },
        {
          "sampler": 11,
          "target": {
            "node": 15,
            "path": "rotation"
          }
        },
        {
          "sampler": 12,
          "target": {
            "node": 15,
            "path": "scale"
          }
        },
        {
          "sampler": 13,
          "target": {
            "node": 16,
            "path": "translation"
          }
        },
        {
          "sampler": 14,
          "target": {
            "node": 16,
            "path": "rotation"
          }
        },
        {
          "sampler": 15,
          "target": {
            "node": 16,
            "path": "scale"
          }
        },
        {
          "sampler": 16,
          "target": {
            "node": 18,
            "path": "rotation"
          }
        },
        {
          "sampler": 17,
          "target": {
            "node": 18,
            "path": "scale"
          }
        },
        {
          "sampler": 18,
          "target": {
            "node": 19,
            "path": "translation"
          }
        },
        {
          "sampler": 19,
          "target": {
            "node": 19,
            "path": "rotation"
          }
        },
        {
          "sampler": 20,
          "target": {
            "node": 19,
            "path": "scale"
          }
        },
        {
          "sampler": 21,
          "target": {
            "node": 20,
            "path": "translation"
          }
        },
        {
          "sampler": 22,
          "target": {
            "node": 20,
            "path": "rotation"
          }
        },
        {
          "sampler": 23,
          "target": {
            "node": 20,
            "path": "scale"
          }
        },
        {
          "sampler": 24,
          "target": {
            "node": 22,
            "path": "rotation"
          }
        },
        {
          "sampler": 25,
          "target": {
            "node": 22,
            "path": "scale"
          }
        },
        {
          "sampler": 26,
          "target": {
            "node": 23,
            "path": "translation"
          }
        },
        {
          "sampler": 27,
          "target": {
            "node": 23,
            "path": "rotation"
          }
        },
        {
          "sampler": 28,
          "target": {
            "node": 23,
            "path": "scale"
          }
        },
        {
          "sampler": 29,
          "target": {
            "node": 24,
            "path": "translation"
          }
        },
        {
          "sampler": 30,
          "target": {
            "node": 24,
            "path": "rotation"
          }
        },
        {
          "sampler": 31,
          "target": {
            "node": 24,
            "path": "scale"
          }
        },
        {
          "sampler": 32,
          "target": {
            "node": 25,
            "path": "rotation"
          }
        },
        {
          "sampler": 33,
          "target": {
            "node": 25,
            "path": "scale"
          }
        },
        {
          "sampler": 34,
          "target": {
            "node": 26,
            "path": "translation"
          }
        },
        {
          "sampler": 35,
          "target": {
            "node": 26,
            "path": "rotation"
          }
        },
        {
          "sampler": 36,
          "target": {
            "node": 26,
            "path": "scale"
          }
        },
        {
          "sampler": 37,
          "target": {
            "node": 27,
            "path": "translation"
          }
        },
        {
          "sampler": 38,
          "target": {
            "node": 27,
            "path": "rotation"
          }
        },
        {
          "sampler": 39,
          "target": {
            "node": 27,
            "path": "scale"
          }
        },
        {
          "sampler": 40,
          "target": {
            "node": 28,
            "path": "translation"
          }
        },
        {
          "sampler": 41,
          "target": {
            "node": 28,
            "path": "rotation"
          }
        },
        {
          "sampler": 42,
          "target": {
            "node": 28,
            "path": "scale"
          }
        }
      ],
      "name": "Pose_OKHand",
      "samplers": [
        {
          "input": 87,
          "interpolation": "LINEAR",
          "output": 88
        },
        {
          "input": 89,
          "interpolation": "LINEAR",
          "output": 90
        },
        {
          "input": 91,
          "interpolation": "LINEAR",
          "output": 92
        },
        {
          "input": 93,
          "interpolation": "LINEAR",
          "output": 94
        },
        {
          "input": 95,
          "interpolation": "LINEAR",
          "output": 96
        },
        {
          "input": 97,
          "interpolation": "LINEAR",
          "output": 98
        },
        {
          "input": 99,
          "interpolation": "LINEAR",
          "output": 100
        },
        {
          "input": 101,
          "interpolation": "LINEAR",
          "output": 102
        },
        {
          "input": 103,
          "interpolation": "LINEAR",
          "output": 104
        },
        {
          "input": 105,
          "interpolation": "LINEAR",
          "output": 106
        },
        {
          "input": 107,
          "interpolation": "LINEAR",
          "output": 108
        },
        {
          "input": 109,
          "interpolation": "LINEAR",
          "output": 110
        },
        {
          "input": 111,
          "interpolation": "LINEAR",
          "output": 112
        },
        {
          "input": 113,
          "interpolation": "LINEAR",
          "output": 114
        },
        {
          "input": 115,
          "interpolation": "LINEAR",
          "output": 116
        },
        {
          "input": 117,
          "interpolation": "LINEAR",
          "output": 118
        },
        {
          "input": 119,
          "interpolation": "LINEAR",
          "output": 120
        },
        {
          "input": 121,
          "interpolation": "LINEAR",
          "output": 122
        },
        {
          "input": 123,
          "interpolation": "LINEAR",
          "output": 124
        },
        {
          "input": 125,
          "interpolation": "LINEAR",
          "output": 126
        },
        {
          "input": 127,
          "interpolation": "LINEAR",
          "output": 128
        },
        {
          "input": 129,
          "interpolation": "LINEAR",
          "output": 130
        },
        {
          "input": 131,
          "interpolation": "LINEAR",
          "output": 132
        },
        {
          "input": 133,
          "interpolation": "LINEAR",
          "output": 134
        },
        {
          "input": 135,
          "interpolation": "LINEAR",
          "output": 136
        },
        {
          "input": 137,
          "interpolation": "LINEAR",
          "output": 138
        },
        {
          "input": 139,
          "interpolation": "LINEAR",
          "output": 140
        },
        {
          "input": 141,
          "interpolation": "LINEAR",
          "output": 142
        },
        {
          "input": 143,
          "interpolation": "LINEAR",
          "output": 144
        },
        {
          "input": 145,
          "interpolation": "LINEAR",
          "output": 146
        },
        {
          "input": 147,
          "interpolation": "LINEAR",
          "output": 148
        },
        {
          "input": 149,
          "interpolation": "LINEAR",
          "output": 150
        },
        {
          "input": 151,
          "interpolation": "LINEAR",
          "output": 152
        },
        {
          "input": 153,
          "interpolation": "LINEAR",
          "output": 154
        },
        {
          "input": 155,
          "interpolation": "LINEAR",
          "output": 156
        },
        {
          "input": 157,
          "interpolation": "LINEAR",
          "output": 158
        },
        {
          "input": 159,
          "interpolation": "LINEAR",
          "output": 160
        },
        {
          "input": 161,
          "interpolation": "LINEAR",
          "output": 162
        },
        {
          "input": 163,
          "interpolation": "LINEAR",
          "output": 164
        },
        {
          "input": 165,
          "interpolation": "LINEAR",
          "output": 166
        },
        {
          "input": 167,
          "interpolation": "LINEAR",
          "output": 168
        },
        {
          "input": 169,
          "interpolation": "LINEAR",
          "output": 170
        },
        {
          "input": 171,
          "interpolation": "LINEAR",
          "output": 172
        }
      ]
    }
  ],
  "asset": {
    "extras": {
      "author": "Do_Neuroscience (https://sketchfab.com/liekere)",
      "license": "CC-BY-NC-4.0 (http://creativecommons.org/licenses/by-nc/4.0/)",
      "source": "https://sketchfab.com/3d-models/anatomically-accurate-rigged-hand-model-for-xr-86f37207468b427ead21e2eef820c06c",
      "title": "Anatomically Accurate Rigged Hand Model for XR"
    },
    "generator": "Sketchfab-17.14.0",
    "version": "2.0"
  },
  "bufferViews": [
    {
      "buffer": 0,
      "byteLength": 41984,
      "byteStride": 8,
      "name": "shortBufferViews",
      "target": 34962
    },
    {
      "buffer": 0,
      "byteLength": 52440,
      "byteOffset": 41984,
      "name": "floatBufferViews",
      "target": 34963
    },
    {
      "buffer": 0,
      "byteLength": 41984,
      "byteOffset": 94424,
      "byteStride": 8,
      "name": "floatBufferViews",
      "target": 34962
    },
    {
      "buffer": 0,
      "byteLength": 125952,
      "byteOffset": 136408,
      "byteStride": 12,
      "name": "floatBufferViews",
      "target": 34962
    },
    {
      "buffer": 0,
      "byteLength": 83968,
      "byteOffset": 262360,
      "byteStride": 16,
      "name": "floatBufferViews",
      "target": 34962
    },
    {
      "buffer": 0,
      "byteLength": 1408,
      "byteOffset": 346328,
      "name": "floatBufferViews"
    },
    {
      "buffer": 0,
      "byteLength": 7840,
      "byteOffset": 347736,
      "name": "floatBufferViews"
    },
    {
      "buffer": 0,
      "byteLength": 1836,
      "byteOffset": 355576,
      "byteStride": 12,
      "name": "floatBufferViews"
    },
    {
      "buffer": 0,
      "byteLength": 28912,
      "byteOffset": 357412,
      "byteStride": 16,
      "name": "floatBufferViews"
    }
  ],
  "buffers": [
    {
      "byteLength": 386324,
      "uri": "scene.bin"
    }
  ],
  "materials": [
    {
      "doubleSided": true,
      "name": "Material",
      "pbrMetallicRoughness": {
        "baseColorFactor": [
          1.0,
          0.557584,
          0.41152,
          1.0
        ],
        "metallicFactor": 0.0,
        "roughnessFactor": 0.5
      }
    }
  ],
  "meshes": [
    {
      "name": "Object_0",
      "primitives": [
        {
          "attributes": {
            "JOINTS_0": 5,
            "NORMAL": 1,
            "POSITION": 0,
            "TEXCOORD_0": 2,
            "WEIGHTS_0": 6
          },
          "indices": 3,
          "material": 0,
          "mode": 4
        }
      ]
    }
  ],
  "nodes": [
    {
      "children": [
        1
      ],
      "matrix": [
        1.0,
        0.0,
        0.0,
        0.0,
        0.0,
        2.220446049250313e-16,
        -1.0,
        0.0,
        0.0,
        1.0,
        2.220446049250313e-16,
        0.0,
        0.0,
        0.0,
        0.0,
        1.0
      ],
      "name": "Sketchfab_model"
    },
    {
      "children": [
        2
      ],
      "name": "root"
    },
    {
      "children": [
        3
      ],
      "matrix": [
        1.0,
        0.0,
        0.0,
        0.0,
        0.0,
        2.220446049250313e-16,
        1.0,
        0.0,
        0.0,
        -1.0,
        2.220446049250313e-16,
        0.0,
        0.0,
        0.0,
        0.0,
        1.0
      ],
      "name": "GLTF_SceneRootNode"
    },
    {
      "children": [
        4
      ],
      "matrix": [
        2.37265682220459,
        0.0,
        0.0,
        0.0,
        0.0,
        1.9160320449123314,
        0.23525917648865685,
        0.0,
        0.0,
        -0.24974090777771918,
        2.033976269787193,
        0.0,
        0.0,
        0.0,
        0.0,
        1.0
      ],
      "name": "Do_HandRigged_22"
    },
    {
      "children": [
        5,
        7,
        6
      ],
      "name": "GLTF_created_0"
    },
    {
      "children": [
        8
      ],
      "name": "GLTF_created_0_rootJoint"
    },
    {
      "name": "Do_HandObject_21"
    },
    {
      "mesh": 0,
      "name": "Object_7",
      "skin": 0
    },
    {
      "children": [
        9,
        13,
        17,
        21,
        25
      ],
      "name": "radius_ulna_20",
      "rotation": [
        -0.27081048488616943,
        -0.0012093735858798027,
        -0.0205377284437418,
        0.9624128341674805
      ],
      "scale": [
        1.0,
        1.0000001192092896,
        1.0000001192092896
      ],
      "translation": [
        0.0,
        0.0,
        0.303692489862442
      ]
    },
    {
      "children": [
        10
      ],
      "name": "pinky_meta_3",
      "rotation": [
        0.3647948205471039,
        0.03010171465575695,
        0.08575861155986786,
        0.9266413450241089
      ],
      "scale": [
        1.0000001192092896,
        1.0,
        1.0000001192092896
      ],
      "translation": [
        2.7939677238464355e-09,
        1.9733375310897827,
        -1.1816155165433884e-07
      ]
    },
    {
      "children": [
        11
      ],
      "name": "pinky_prox_2",
      "rotation": [
        -0.0014326669042930007,
        -0.03163013607263565,
        -0.059957411140203476,
        0.9976986646652222
      ],
      "scale": [
        1.0,
        0.9999999403953552,
        0.9999998807907104
      ],
      "translation": [
        -4.0978193283081055e-08,
        4.004893779754639,
        1.4901161193847656e-08
      ]
    },
    {
      "children": [
        12
      ],
      "name": "pinky_midd_1",
      "rotation": [
        0.0073029776103794575,
        0.11876116693019867,
        -0.018131371587514877,
        0.992730438709259
      ],
      "translation": [
        -1.862645149230957e-08,
        1.8388792276382446,
        6.705522537231445e-08
      ]
    },
    {
      "name": "pinky_dist_0",
      "rotation": [
        -0.00544530525803566,
        0.06297175586223602,
        0.023981759324669838,
        0.9977123141288757
      ],
      "scale": [
        1.0,
        0.9999999403953552,
        0.9999999403953552
      ],
      "translation": [
        4.470348358154297e-08,
        0.944679856300354,
        2.4586915969848633e-07
      ]
    },
    {
      "children": [
        14
      ],
      "name": "ring_meta_7",
      "rotation": [
        0.25041741132736206,
        0.02150077000260353,
        0.07397112250328064,
        0.9650684595108032
      ],
      "scale": [
        1.0,
        1.0000001192092896,
        1.0
      ],
      "translation": [
        2.7939677238464355e-09,
        1.9733375310897827,
        -1.1816155165433884e-07
      ]
    },
    {
      "children": [
        15
      ],
      "name": "ring_prox_6",
      "rotation": [
        0.014626488089561462,
        -0.03386178985238075,
        -0.06104637682437897,
        0.9974531531333923
      ],
      "scale": [
        1.0,
        1.0000001192092896,
        0.9999998807907104
      ],
      "translation": [
        -4.284083843231201e-08,
        4.042314052581787,
        6.891787052154541e-08
      ]
    },
    {
      "children": [
        16
      ],
      "name": "ring_midd_5",
      "rotation": [
        0.005477075930684805,
        6.265199044719338e-05,
        0.007122095208615065,
        0.9999596476554871
      ],
      "scale": [
        1.0,
        0.9999998211860657,
        0.9999998211860657
      ],
      "translation": [
        -3.971217665821314e-08,
        2.5442028045654297,
        -2.0767765818163753e-07
      ]
    },
    {
      "name": "ring_dist_4",
      "rotation": [
        0.011639763601124287,
        0.0010397722944617271,
        0.01643858104944229,
        0.9997966289520264
      ],
      "scale": [
        1.0,
        1.0000001192092896,
        1.0000001192092896
      ],
      "translation": [
        -1.8451828509569168e-08,
        1.445949673652649,
        1.691415718596545e-07
      ]
    },
    {
      "children": [
        18
      ],
      "name": "midd_meta_11",
      "rotation": [
        0.11355523765087128,
        0.0327218621969223,
        0.08391668647527695,
        0.9894405007362366
      ],
      "scale": [
        0.9999999403953552,
        1.0,
        1.0000001192092896
      ],
      "translation": [
        2.7939677238464355e-09,
        1.9733375310897827,
        -1.1816155165433884e-07
      ]
    },
    {
      "children": [
        19
      ],
      "name": "midd_prox_10",
      "rotation": [
        0.09980366379022598,
        -0.045112114399671555,
        -0.08172989636659622,
        0.9906181693077087
      ],
      "scale": [
        1.0,
        1.0,
        1.0000001192092896
      ],
      "translation": [
        -2.9802322387695313e-08,
        4.245011806488037,
        4.470348358154297e-08
      ]
    },
    {
      "children": [
        20
      ],
      "name": "midd_midd_9",
      "rotation": [
        0.008413504809141159,
        0.0009185057715512812,
        0.002334872493520379,
        0.9999615550041199
      ],
      "scale": [
        1.0,
        0.9999998807907104,
        1.0
      ],
      "translation": [
        -1.2412783689796925e-08,
        2.7908761501312256,
        -1.697626430541277e-07
      ]
    },
    {
      "name": "midd_dist_8",
      "rotation": [
        -0.008602817542850971,
        -0.0003532845003064722,
        -0.0035109713207930326,
        0.9999567866325378
      ],
      "scale": [
        0.9999999403953552,
        1.0000001192092896,
        0.9999998807907104
      ],
      "translation": [
        -7.380731403827667e-08,
        1.7368611097335815,
        -1.4370016288012266e-09
      ]
    },
    {
      "children": [
        22
      ],
      "name": "index_meta_15",
      "rotation": [
        -0.010683221742510796,
        0.018169663846492767,
        0.0635794997215271,
        0.9977541565895081
      ],
      "scale": [
        1.0,
        1.0,
        1.0000001192092896
      ],
      "translation": [
        2.7939677238464355e-09,
        1.9733375310897827,
        -1.1816155165433884e-07
      ]
    },
    {
      "children": [
        23
      ],
      "name": "index_prox_14",
      "rotation": [
        0.13177064061164856,
        -0.020509634166955948,
        -0.07984427362680435,
        0.9878465533256531
      ],
      "scale": [
        0.9999999403953552,
        0.9999999403953552,
        1.0
      ],
      "translation": [
        4.470348358154297e-08,
        4.4490132331848145,
        -5.494803190231323e-08
      ]
    },
    {
      "children": [
        24
      ],
      "name": "index_midd_13",
      "rotation": [
        0.0505283884704113,
        -0.0028593135066330433,
        0.008845481090247631,
        0.9986793994903564
      ],
      "scale": [
        1.0,
        1.0,
        0.9999999403953552
      ],
      "translation": [
        -2.0489096641540527e-08,
        2.7596545219421387,
        1.9383151084184647e-07
      ]
    },
    {
      "name": "index_dist_12",
      "rotation": [
        0.0014399837236851454,
        0.00442028371617198,
        -0.0016207642620429397,
        0.9999879002571106
      ],
      "scale": [
        1.0,
        1.0000001192092896,
        1.0
      ],
      "translation": [
        3.632158041000366e-08,
        1.3109759092330933,
        -1.0036455933004618e-07
      ]
    },
    {
      "children": [
        26
      ],
      "name": "thumb_trapez_19",
      "rotation": [
        -0.4080539047718048,
        0.017886118963360786,
        0.08020967990159988,
        0.9092516303062439
      ],
      "scale": [
        0.9999999403953552,
        1.0,
        1.0000001192092896
      ],
      "translation": [
        2.7939677238464355e-09,
        1.9733375310897827,
        -1.1816155165433884e-07
      ]
    },
    {
      "children": [
        27
      ],
      "name": "thumb_meta_18",
      "rotation": [
        0.22036686539649963,
        0.10920553654432297,
        -0.15663515031337738,
        0.9565449357032776
      ],
      "scale": [
        0.9999999403953552,
        1.0000001192092896,
        1.0
      ],
      "translation": [
        2.2351741790771484e-08,
        2.813136100769043,
        -7.165363058447838e-08
      ]
    },
    {
      "children": [
        28
      ],
      "name": "thumb_prox_17",
      "rotation": [
        0.0695718303322792,
        0.1937195360660553,
        0.13508786261081696,
        0.9692181348800659
      ],
      "scale": [
        1.0,
        1.0000001192092896,
        1.0
      ],
      "translation": [
        7.078051567077637e-08,
        1.5502808094024658,
        5.19677996635437e-07
      ]
    },
    {
      "name": "thumb_dist_16",
      "rotation": [
        0.03723851963877678,
        0.15870139002799988,
        0.044322025030851364,
        0.9856281280517578
      ],
      "scale": [
        1.0,
        1.0,
        0.9999999403953552
      ],
      "translation": [
        8.195638656616211e-08,
        1.5702131986618042,
        -6.780028343200684e-07
      ]
    }
  ],
  "scene": 0,
  "scenes": [
    {
      "name": "Sketchfab_Scene",
      "nodes": [
        0
      ]
    }
  ],
  "skins": [
    {
      "inverseBindMatrices": 4,
      "joints": [
        5,
        8,
        9,
        10,
        11,
        12,
        13,
        14,
        15,
        16,
        17,
        18,
        19,
        20,
        21,
        22,
        23,
        24,
        25,
        26,
        27,
        28
      ],
      "skeleton": 5
    }
  ]
}
